<?xml version="1.0" standalone="no"?>
<!DOCTYPE svg PUBLIC "-//W3C//DTD SVG 20010904//EN"
 "http://www.w3.org/TR/2001/REC-SVG-20010904/DTD/svg10.dtd">
<svg version="1.0" xmlns="http://www.w3.org/2000/svg"
 width="125.000000pt" height="125.000000pt" viewBox="0 0 125.000000 125.000000"
 preserveAspectRatio="xMidYMid meet">
 
<g transform="translate(0.000000,125.000000) scale(0.100000,-0.100000)"
fill="#000000" stroke="none">
<path d="M58 1169 c-21 -12 -23 -40 -6 -57 7 -7 35 -12 64 -12 l51 0 128 -377
c70 -208 132 -384 138 -391 7 -9 77 -12 311 -10 l301 3 0 30 0 30 -278 3
c-310 3 -278 -5 -301 70 l-7 22 303 0 c167 0 308 4 315 8 17 11 136 478 128
502 -6 19 -20 20 -467 22 l-461 3 -24 70 c-13 39 -31 76 -40 83 -20 14 -131
16 -155 1z m1060 -246 c-2 -10 -24 -96 -49 -190 l-44 -173 -297 0 -296 0 -61
183 c-34 100 -61 185 -61 190 0 4 183 7 406 7 382 0 406 -1 402 -17z"/>
<path d="M528 264 c-37 -20 -56 -81 -38 -124 17 -41 50 -62 96 -62 94 0 137
110 69 178 -28 28 -84 32 -127 8z m80 -86 c-3 -25 -17 -32 -37 -19 -19 12 -6
41 19 41 16 0 21 -5 18 -22z"/>
<path d="M868 265 c-36 -20 -53 -74 -38 -120 14 -44 48 -67 96 -67 94 0 137
110 69 178 -28 28 -84 32 -127 9z m80 -87 c-3 -25 -17 -32 -37 -19 -19 12 -6
41 19 41 16 0 21 -5 18 -22z"/>
</g>
</svg>
