<?xml version="1.0" standalone="no"?>
<!DOCTYPE svg PUBLIC "-//W3C//DTD SVG 20010904//EN"
 "http://www.w3.org/TR/2001/REC-SVG-20010904/DTD/svg10.dtd">
<svg version="1.0" xmlns="http://www.w3.org/2000/svg"
 width="100.000000pt" height="100.000000pt" viewBox="0 0 100.000000 100.000000"
 preserveAspectRatio="xMidYMid meet">

<g transform="translate(0.000000,100.000000) scale(0.100000,-0.100000)"
fill="#000000" stroke="none">
<path d="M393 956 c-237 -58 -395 -293 -355 -528 35 -204 186 -355 390 -390
306 -52 586 228 534 534 -47 271 -308 447 -569 384z m191 -61 c165 -35 289
-165 315 -332 11 -69 1 -161 -25 -221 -27 -66 -31 -66 -84 -9 -27 29 -72 66
-102 81 -29 16 -54 30 -56 31 -1 1 12 29 29 63 27 51 30 67 25 104 -8 55 -34
98 -82 134 -33 25 -46 29 -104 29 -58 0 -71 -4 -104 -29 -76 -58 -102 -141
-69 -218 11 -24 27 -51 37 -60 15 -16 12 -19 -44 -49 -34 -18 -83 -56 -110
-85 -52 -58 -57 -58 -84 8 -97 231 42 500 286 553 81 17 90 17 172 0z m3 -219
c73 -80 20 -206 -87 -206 -102 0 -159 122 -93 200 34 41 58 51 108 45 30 -3
48 -13 72 -39z m58 -308 c59 -30 148 -121 143 -145 -2 -10 -28 -35 -58 -56
-135 -94 -325 -94 -460 0 -30 21 -56 46 -58 54 -4 23 83 116 132 141 65 33 86
38 171 34 62 -2 91 -8 130 -28z"/>
</g>
</svg>
