<?xml version="1.0" standalone="no"?>
<!DOCTYPE svg PUBLIC "-//W3C//DTD SVG 20010904//EN"
 "http://www.w3.org/TR/2001/REC-SVG-20010904/DTD/svg10.dtd">
<svg version="1.0" xmlns="http://www.w3.org/2000/svg"
 width="625.000000pt" height="369.000000pt" viewBox="0 0 625.000000 369.000000"
 preserveAspectRatio="xMidYMid meet">

<g transform="translate(0.000000,369.000000) scale(0.100000,-0.100000)"
fill="#000000" stroke="none">
<path d="M2210 3131 c-631 -194 -654 -204 -724 -299 -18 -26 -159 -297 -311
-602 l-277 -555 -122 -125 c-161 -166 -181 -204 -181 -350 0 -99 2 -109 32
-165 23 -44 74 -102 187 -215 l156 -155 207 207 c125 123 226 215 253 229 l45
24 713 3 714 3 -7 42 c-23 149 -99 253 -232 315 l-58 27 -321 5 -320 5 -59 30
c-96 49 -155 143 -155 245 0 35 52 315 141 767 l10 52 426 217 c466 238 468
239 492 342 14 55 3 126 -19 129 -8 1 -274 -78 -590 -176z"/>
<path d="M2626 2893 l-129 -65 73 -73 c84 -84 149 -123 218 -132 54 -6 130 14
171 46 l25 19 -100 117 c-54 64 -106 125 -114 135 -14 17 -21 15 -144 -47z"/>
<path d="M3137 2911 c-33 -36 -68 -120 -67 -160 1 -35 194 -176 347 -254 127
-64 222 -100 354 -132 92 -22 249 -43 249 -33 0 3 -28 16 -62 28 -251 91 -513
277 -688 489 -46 56 -86 101 -90 101 -4 0 -24 -18 -43 -39z"/>
<path d="M2985 2608 c-40 -74 -40 -162 0 -237 32 -59 118 -137 225 -206 141
-92 252 -134 462 -175 165 -33 199 -45 263 -91 81 -58 133 -153 149 -275 6
-42 4 -54 -12 -75 l-20 -24 -349 -5 -348 -5 -57 -29 c-116 -59 -206 -185 -216
-303 l-4 -53 793 -2 794 -3 46 -23 c29 -14 123 -96 245 -212 l199 -189 153
152 c196 194 217 232 217 382 0 168 4 162 -442 606 -337 335 -383 378 -427
393 -42 14 -102 16 -394 16 -308 0 -355 2 -445 21 -266 53 -518 172 -725 338
-34 28 -66 51 -70 51 -5 0 -21 -23 -37 -52z"/>
</g>
</svg>
